<?xml version="1.0" encoding="utf-8"?>
<!-- Generator: Adobe Illustrator 23.0.2, SVG Export Plug-In . SVG Version: 6.00 Build 0)  -->
<svg version="1.1" xmlns="http://www.w3.org/2000/svg" xmlns:xlink="http://www.w3.org/1999/xlink" x="0px" y="0px" width="279.4px"
	 height="32.5px" viewBox="0 0 279.4 32.5" style="enable-background:new 0 0 279.4 32.5;" xml:space="preserve">
<style type="text/css">
	.st0{fill:#FFFFFF;}
	.st1{fill:#4A7729;}
	.st2{font-family:'FSHumana';}
	.st3{font-size:17px;}
</style>
<g id="Layer_1">
	<path class="st0" d="M40.7,7.1c-0.5,0-0.9,0.4-0.9,0.9V25c-1.2,0.2-2.6,0.5-4,0.5c-3,0-4-1.1-4-4.4V8c0-0.5-0.4-0.9-0.7-0.9h-4.5
		v14.1c0,6.6,3.5,8.7,9.1,8.7c4.5,0,9-1.2,9.3-1.4V7.1H40.7z M109.3,29.6c0.4,0,0.9-0.4,0.9-0.9V11.6c1.2-0.2,2.6-0.5,4-0.5
		c3,0,4,1.1,4,4.4v13.3c0,0.5,0.4,0.9,0.7,0.9h4.5V15.4c0-6.6-3.5-8.7-9.1-8.7c-4.5,0-9,1.2-9.3,1.4v21.5H109.3z M91.4,6.7
		c-5.9,0-9.5,3.1-9.5,10V20c0,7.5,4,10,8.3,10c2.1,0,4.4-1.5,5-2.5v1.4c0,0.4,0.2,0.7,0.7,0.7c0,0,4.4,0,4.5,0V8
		C100.5,8,96.1,6.7,91.4,6.7z M95.2,24.1c-1,0.9-1.7,1.4-3.7,1.4c-3,0-4.2-1.9-4.2-5.6v-3.1c-0.1-4.4,1.5-5.6,4.1-5.6
		c2.1,0,3.4,0.1,3.7,0.2L95.2,24.1L95.2,24.1z M136.6,6.7c-5.9,0-9.5,3.1-9.5,10V20c0,7.5,4,10,8.2,10c2.1,0,4.4-1.5,5-2.5v1.4
		c0,0.4,0.4,0.7,0.7,0.7c0,0,4.2,0,4.5,0V8C145.6,8,141.3,6.7,136.6,6.7z M140.4,24.1c-1,0.9-1.7,1.4-3.7,1.4c-3,0-4.2-1.9-4.2-5.6
		v-3.1c0-4.5,1.6-5.6,4.2-5.6c2.1,0,3.4,0.1,3.7,0.2V24.1z M0,29.6c0.7,0,4.7,0,4.7,0c0.4,0,0.7-0.4,0.7-0.7V16.4h8.7
		c1.5,0,2.5,1.1,2.5,2.4v10.1c0,0.4,0.4,0.7,0.7,0.7c0,0,4.5,0,4.7,0c0,0,0-29.4,0-29.6h-4.7c-0.4,0-0.7,0.4-0.7,0.7V12h-9
		c-1.2,0-2.1-1-2.1-2.1V0.7C5.5,0.5,5.2,0,4.7,0H0C0,0.2,0,29.6,0,29.6z M70.1,6.7c-2.5,0-4.9,1-6,1.7c-1.6-1.2-3.9-1.7-6.6-1.7
		c-4.1,0-7.6,1.2-8.1,1.5v21.5h4.5c0.5,0,0.7-0.4,0.7-0.9V11.6c1.1-0.2,2-0.4,2.7-0.4c3.1,0,3.9,1.2,3.9,4.4v13.3
		c0,0.4,0.2,0.9,0.7,0.9h3.7c0.5,0,0.7-0.4,0.7-0.9V12.2c0.9-0.6,2-1,3.1-1c2.4,0,3.4,1.1,3.4,4v13.7c0,0.4,0.2,0.9,0.7,0.9
		c0,0,4.1,0,4.5,0V14.4C78.3,8.7,74.7,6.7,70.1,6.7z"/>
</g>
<g id="Layer_2">
	<path class="st0" d="M279.4,31.5h-103v-30h96c3.9,0,7,3.1,7,7V31.5z"/>
	<text transform="matrix(1 0 0 1 185.4364 22.2503)" class="st1 st2 st3">Developers</text>
</g>
</svg>
